<svg xmlns="http://www.w3.org/2000/svg" width="64" height="64" viewBox="0 0 64 64"><g transform="translate(-28.007 -1179.362)"><rect style="isolation:auto;mix-blend-mode:normal" width="5" height="7" x="85.014" y="1223.362" fill="#d22e2e" color="#000" overflow="visible" rx="1" ry="1"/><rect width="4" height="5" x="85.014" y="1224.362" fill="#fff" color="#000" overflow="visible" rx=".6" ry=".6" style="isolation:auto;mix-blend-mode:normal"/><g transform="translate(27.021 190)"><rect width="40" height="30" x="12" y="1004.362" fill="#e9eded" rx="2" ry="2"/><path fill="#263238" d="m 14,1004.3622 36,0 c 1.108,0 1.949688,0.8931 2,2 l 0,22 0,2 -40,0 0,-2 0,-22 c 0,-1.108 0.892,-2 2,-2 z"/><rect width="36" height="22" x="14" y="1006.362" fill="#03a9f4" rx="0" ry="0"/><rect width="7" height="7" x="28.5" y="1034.362" fill="#cfd8dc" rx="0" ry="0"/><rect width="15" height="2" x="24.5" y="1040.362" fill="#e9eded" rx="1" ry="1"/><rect width="15" height="1" x="24.5" y="1041.362" fill="#e9eded"/></g><g transform="translate(27.021 183)"><path fill="#cfd8dc" d="m 3.5,1035.8622 13.466413,0 c 0.849607,0 1.533587,0.684 1.533587,1.5336 l 0,2.9664 c 0,0.8496 -0.68398,1.5336 -1.533587,1.5336 l -13.466413,0" color="#000" overflow="visible" style="isolation:auto;mix-blend-mode:normal"/><path fill="#bbdefb" style="isolation:auto;mix-blend-mode:normal" d="m 5.5,1042.8286 13.5,0 c 0.849607,0 1.533587,0.684 1.533587,1.5336 l 0,2.9664 c 0,0.8496 -0.68398,1.5336 -1.533587,1.5336 l -13.5,0" color="#000" overflow="visible"/><path fill="none" stroke="#03a9f4" stroke-linecap="round" stroke-linejoin="round" d="m 5.5,1042.8959 13.466413,0 c 0.849607,0 1.533587,0.6764 1.533587,1.5165 l 0,2.9333 c 0,0.8401 -0.68398,1.5165 -1.533587,1.5165 l -13.466413,0" color="#000" overflow="visible" style="isolation:auto;mix-blend-mode:normal"/><path fill="none" stroke="#90caf9" d="M5.5 1044.8622l14.5 0M5.5 1046.8622l14.5 0"/><path fill="#e9eded" style="isolation:auto;mix-blend-mode:normal" d="m 3.5,1035.8622 7.466413,0 0,6.0336 -7.466413,0" color="#000" overflow="visible"/><path fill="none" stroke="#4caf50" stroke-linecap="round" stroke-linejoin="round" style="isolation:auto;mix-blend-mode:normal" d="m 3.5,1035.8622 13.466413,0 c 0.849607,0 1.533587,0.684 1.533587,1.5336 l 0,2.9664 c 0,0.8496 -0.68398,1.5336 -1.533587,1.5336 l -13.466413,0" color="#000" overflow="visible"/><path fill="none" stroke="#b0bec5" d="M9.5 1037.8622l8.5 0M9.5 1039.8622l8.5 0"/><path fill="none" stroke="#cfd8dc" d="M3.5 1037.8622l7.5 0M3.5 1039.8622l7.5 0"/></g><path fill="#f44336" style="isolation:auto;mix-blend-mode:normal" d="m 79.014233,1221.3622 7,0 1,0 0,10 c 0,0.554 -0.446,1 -1,1 l -7,0 c -0.554,0 -1,-0.446 -1,-1 l 0,-10 z" color="#000" overflow="visible"/><path fill="#b0bec5" fill-rule="evenodd" style="line-height:normal;text-indent:0;text-align:start;text-decoration-line:none;text-decoration-style:solid;text-decoration-color:#000;text-transform:none;block-progression:tb;isolation:auto;mix-blend-mode:normal" d="M82.514926 1219.3613c-.676158-.01-.676158 1.0096 0 1l2.992188 0c.676158.01.676158-1.0096 0-1zM81.514233 1217.3613c-.676158-.01-.676158 1.0096 0 1l6.993 0c.676158.01.676158-1.0096 0-1z" color="#000" font-family="sans-serif" font-weight="400" overflow="visible" white-space="normal"/><path fill="#b0bec5" fill-rule="evenodd" style="line-height:normal;text-indent:0;text-align:start;text-decoration-line:none;text-decoration-style:solid;text-decoration-color:#000;text-transform:none;block-progression:tb;isolation:auto;mix-blend-mode:normal" d="M83.541577 1218.3622a.50030889.50030889 0 0 1-.01367 1l1.99414 0a.50030896.50030896 0 0 1-.03516-1l-1.945312 0zM79.521352 1215.3621c-.676158-.01-.676158 1.0096 0 1l1 0c.676158.01.676158-1.0097 0-1zM82.521352 1215.3613a.50004997.50004997 0 1 0 0 1l5 0a.50004997.50004997 0 1 0 0-1l-5 0z" color="#000" font-family="sans-serif" font-weight="400" overflow="visible" white-space="normal"/><path fill="#b0bec5" fill-rule="evenodd" style="line-height:normal;text-indent:0;text-align:start;text-decoration-line:none;text-decoration-style:solid;text-decoration-color:#000;text-transform:none;block-progression:tb;isolation:auto;mix-blend-mode:normal" d="m 84.506421,1215.3613 a 0.50004997,0.50004997 0 1 0 0,1 l 5,0 a 0.50004997,0.50004997 0 1 0 0,-1 l -5,0 z" color="#000" font-family="sans-serif" font-weight="400" overflow="visible" white-space="normal"/><path fill="#b0bec5" fill-rule="evenodd" d="M83.027903 1216.3622a.50030889.50030889 0 0 1-.01367 1l1.99414 0a.50030896.50030896 0 0 1-.03516-1l-1.945312 0zM86.033763 1216.3622a.50030889.50030889 0 0 1-.01367 1l1.99414 0a.50030896.50030896 0 0 1-.03516-1l-1.945312 0zM87.507233 1219.3621c-.676158-.01-.676158 1.0096 0 1l-.000119 0c.676158.01.676158-1.0097 0-1z" color="#000" font-family="sans-serif" font-weight="400" overflow="visible" white-space="normal" style="line-height:normal;text-indent:0;text-align:start;text-decoration-line:none;text-decoration-style:solid;text-decoration-color:#000;text-transform:none;block-progression:tb;isolation:auto;mix-blend-mode:normal"/><path fill="none" stroke="#263238" stroke-linecap="round" stroke-linejoin="round" d="M38.509183 1193.8571l-1-1M40.014233 1192.8551l0-.9929M37.507112 1195.3622l-.992879 0"/><path fill="none" stroke="#f44336" stroke-linecap="round" stroke-linejoin="round" d="M35.094969 1216.8571l1.414214-1.4142M35.094969 1215.4429l1.414214 1.4142"/><path fill="none" stroke="#546e7a" stroke-linecap="round" stroke-linejoin="round" d="M31.507112 1212.8551l.000009-2M30.507121 1211.8551l1.999991 0"/><path fill="none" stroke="#f57c00" stroke-linecap="round" stroke-linejoin="round" d="M82.507112 1211.8622l.000009-2M81.507121 1210.8622l1.999991 0"/><ellipse style="isolation:auto;mix-blend-mode:normal" cx="86.514" cy="1212.862" fill="#4caf50" color="#000" overflow="visible" rx=".5" ry=".5"/><path fill="none" stroke="#ffc107" stroke-linecap="round" stroke-linejoin="round" d="M88.09497 1207.8571l1.414219-1.4142M88.094976 1206.4429l1.414207 1.4142"/><circle style="isolation:auto;mix-blend-mode:normal" cx="35.514" cy="1205.862" r="1" fill="none" stroke="#ffc107" stroke-linecap="round" stroke-linejoin="round" color="#000" overflow="visible"/></g></svg>